:SAMPLES-PER-SECOND 25
:FULLY-SPECIFIED
:DEGREES
104
root  -2.85915 66.5562 0.968271 -0.650689 0.86953 -4.43094
RightUpLeg  -11.5439 3.99307 8.14814
RightLeg  9.24279 -3.86691 -1.68308
RightFoot  4.82806 -0.0393805 0.509198
RightToes  2.84633e-005 7.89722e-005 -0.000426369
Spine  1.98473 -1.81326 4.55979
Spine1  3.60632 -3.11031 5.36891
HEad  25.2724 -2.33867 -6.29218
LeftShoulder1  -3.88251e-019 0 -3.92111e-022
LeftArm  -35.5657 5.77369 -86.5782
LeftForeArm  42.1959 1.6163 2.73077
LeftHand  -0.523068 -3.98936 6.74196
RightShoulder  7.45443e-017 -2.42657e-020 1.96277e-018
RightArm  -27.8058 -20.9528 71.3077
RightForeArm  26.2869 8.12474 7.66402
RightHand  -1.0466 8.9773 -8.80894
LeftUpLeg  -5.39811 6.39946 4.00917
LeftLeg  50.6463 -4.1359 -4.92941
LeftFoot  7.94795 0.0748961 -0.557755
LeftToes  3.91355e-005 3.11907e-005 -4.10385e-006
105
root  -2.94106 66.2771 1.85261 -2.13205 1.76732 -6.10295
RightUpLeg  -10.2615 4.68345 10.1576
RightLeg  12.7396 -5.67307 -2.16709
RightFoot  1.77525 -0.0242706 0.316975
RightToes  2.84633e-005 7.89722e-005 -0.000426369
Spine  2.66833 -1.51638 5.54621
Spine1  4.99166 -2.45433 6.96498
HEad  25.0777 -3.32658 -7.34273
LeftShoulder1  -3.88251e-019 0 -3.92111e-022
LeftArm  -35.5727 4.94934 -85.8676
LeftForeArm  40.4134 1.70737 2.01153
LeftHand  -0.649512 -3.9547 8.33273
RightShoulder  7.45443e-017 -2.42657e-020 1.96277e-018
RightArm  -27.3099 -20.3263 70.439
RightForeArm  27.2092 7.66462 7.95416
RightHand  -1.0804 9.73987 -8.65275
LeftUpLeg  -11.026 4.84159 5.57538
LeftLeg  61.3486 -1.15527 -1.63262
LeftFoot  11.4009 0.736774 -4.04499
LeftToes  3.91355e-005 3.11907e-005 -4.10385e-006
106
root  -2.98065 66.1308 2.75318 -3.58276 2.15976 -6.95899
RightUpLeg  -8.28266 4.82728 11.4278
RightLeg  15.0396 -6.51817 -2.56004
RightFoot  -1.05644 -0.0201003 0.143342
RightToes  2.84633e-005 7.89722e-005 -0.000426369
Spine  3.20373 -1.18685 6.2973
Spine1  6.11381 -1.73958 7.89955
HEad  25.8262 -3.79854 -7.88966
LeftShoulder1  -3.88251e-019 0 -3.92111e-022
LeftArm  -35.3839 4.02811 -85.5721
LeftForeArm  37.6406 1.83176 1.3556
LeftHand  -0.705786 -4.1022 8.89908
RightShoulder  7.45443e-017 -2.42657e-020 1.96277e-018
RightArm  -27.1805 -18.3355 69.688
RightForeArm  30.5574 5.8202 7.05309
RightHand  -1.16437 9.98542 -9.15133
LeftUpLeg  -15.5729 2.99854 5.85638
LeftLeg  67.3075 0.761153 2.76741
LeftFoot  6.86145 0.335368 -2.35447
LeftToes  3.91355e-005 3.11907e-005 -4.10385e-006
107
root  -2.99323 66.1322 3.70083 -4.45182 2.10979 -6.77344
RightUpLeg  -6.29376 4.75804 11.6679
RightLeg  16.3015 -6.73443 -2.90668
RightFoot  -3.22678 -0.0135031 -0.11976
RightToes  2.84633e-005 7.89722e-005 -0.000426369
Spine  3.32052 -0.733073 6.41225
Spine1  6.45449 -0.890868 7.84266
HEad  27.3733 -4.10728 -7.67433
LeftShoulder1  -3.88251e-019 0 -3.92111e-022
LeftArm  -34.8449 3.61455 -85.2858
LeftForeArm  35.6188 1.9322 0.778043
LeftHand  -0.721008 -4.21733 8.98247
RightShoulder  7.45443e-017 -2.42657e-020 1.96277e-018
RightArm  -27.3887 -16.6395 69.6857
RightForeArm  32.266 4.3121 5.65364
RightHand  -1.2676 9.54324 -10.1997
LeftUpLeg  -19.2042 1.01643 4.92145
LeftLeg  67.3785 1.82545 5.56589
LeftFoot  0.334564 -0.257867 2.43007
LeftToes  3.91355e-005 3.11907e-005 -4.10385e-006
108
root  -2.97571 66.2094 4.66099 -4.83388 1.63467 -5.89639
RightUpLeg  -4.41229 4.96705 11.1738
RightLeg  16.88 -6.54722 -3.14519
RightFoot  -4.83039 0.00237765 -0.62023
RightToes  2.84633e-005 7.89722e-005 -0.000426369
Spine  3.25788 -0.129202 5.88342
Spine1  6.47073 0.11047 7.09294
HEad  28.1272 -4.44323 -7.08666
LeftShoulder1  -3.88251e-019 0 -3.92111e-022
LeftArm  -34.1002 3.79779 -84.7431
LeftForeArm  34.4446 2.06339 -0.105645
LeftHand  -0.730937 -4.19732 9.11947
RightShoulder  7.45443e-017 -2.42657e-020 1.96277e-018
RightArm  -27.816 -15.6537 70.2678
RightForeArm  30.0427 4.02663 4.85814
RightHand  -1.32033 9.16912 -10.8601
LeftUpLeg  -21.9596 -0.780309 3.42665
LeftLeg  62.3301 2.95695 6.72364
LeftFoot  -3.23692 -0.28913 4.25816
LeftToes  3.91355e-005 3.11907e-005 -4.10385e-006
109
root  -2.9232 66.2914 5.59348 -4.8577 0.536631 -4.84214
RightUpLeg  -2.73699 5.5349 10.3437
RightLeg  17.0554 -6.01623 -3.08701
RightFoot  -6.22213 0.0123984 -1.22231
RightToes  2.84633e-005 7.89722e-005 -0.000426369
Spine  3.19831 0.587395 5.01958
Spine1  6.4787 1.27867 6.21724
HEad  27.8636 -4.49225 -6.63207
LeftShoulder1  -3.88251e-019 0 -3.92111e-022
LeftArm  -33.7704 4.26653 -84.0376
LeftForeArm  33.718 2.13891 -1.08044
LeftHand  -0.730266 -4.34222 8.98493
RightShoulder  7.45443e-017 -2.42657e-020 1.96277e-018
RightArm  -27.72 -14.8272 70.8088
RightForeArm  26.2936 4.58618 5.07284
RightHand  -1.328 9.31878 -10.8172
LeftUpLeg  -23.4165 -1.24995 2.10138
LeftLeg  52.8953 4.37015 6.62783
LeftFoot  -4.44103 -0.193125 3.63724
LeftToes  3.91355e-005 3.11907e-005 -4.10385e-006
110
root  -2.84769 66.3957 6.51024 -4.42348 -1.12922 -3.8527
RightUpLeg  -1.34624 6.22514 9.3616
RightLeg  16.6179 -5.16492 -2.69983
RightFoot  -7.23007 0.0165612 -1.82699
RightToes  2.84633e-005 7.89722e-005 -0.000426369
Spine  3.04794 1.3481 3.95688
Spine1  6.24836 2.58019 5.44221
HEad  27.5335 -4.20627 -6.48979
LeftShoulder1  -3.88251e-019 0 -3.92111e-022
LeftArm  -34.0732 4.68119 -83.5574
LeftForeArm  33.329 1.45799 -1.54173
LeftHand  -0.730448 -4.60266 8.76762
RightShoulder  7.45443e-017 -2.42657e-020 1.96277e-018
RightArm  -26.9747 -13.7867 71.0258
RightForeArm  25.3998 5.16862 5.9607
RightHand  -1.30758 9.66312 -10.428
LeftUpLeg  -23.1421 -0.0404178 1.0216
LeftLeg  39.0765 5.39449 5.03901
LeftFoot  -3.24906 -0.204339 3.13048
LeftToes  3.91355e-005 3.11907e-005 -4.10385e-006
111
root  -2.76338 66.5367 7.46423 -3.87905 -2.70366 -2.9657
RightUpLeg  0.465483 6.4802 8.35378
RightLeg  15.0772 -3.92753 -2.21102
RightFoot  -7.69142 0.0273224 -2.49002
RightToes  2.84633e-005 7.89722e-005 -0.000426369
Spine  2.88008 1.91 2.76905
Spine1  5.89446 3.64055 4.68799
HEad  27.4542 -3.85783 -6.47422
LeftShoulder1  -3.88251e-019 0 -3.92111e-022
LeftArm  -34.5318 5.01748 -83.4647
LeftForeArm  32.3607 1.59249 -1.24578
LeftHand  -0.720889 -4.62413 8.63947
RightShoulder  7.45443e-017 -2.42657e-020 1.96277e-018
RightArm  -26.02 -12.5351 71.1842
RightForeArm  27.7173 5.41231 6.92266
RightHand  -1.29152 9.92025 -10.1424
LeftUpLeg  -20.5018 1.28392 0.00575664
LeftLeg  21.9438 4.99393 2.5436
LeftFoot  0.217973 -0.138327 1.35381
LeftToes  3.91355e-005 3.11907e-005 -4.10385e-006
